<svg width="451" height="155" viewBox="0 0 451 155" fill="none" xmlns="http://www.w3.org/2000/svg">
<path fill-rule="evenodd" clip-rule="evenodd" d="M136.821 46.8602L149.313 59.6342L122.309 87.2486L151.395 116.992L138.903 129.766L97.3257 87.2486L136.821 46.8602Z" fill="#55C6FF"/>
<path fill-rule="evenodd" clip-rule="evenodd" d="M108.139 16.097L95.6852 3.60545L66.6865 32.6912L37.6878 3.60544L25.2336 16.097L66.6865 57.6744L108.139 16.097Z" fill="black"/>
<path fill-rule="evenodd" clip-rule="evenodd" d="M104.534 18.1789L92.3155 5.6873L65.9013 32.6912L37.4513 3.60544L25.2327 16.097L65.9013 57.6744L104.534 18.1789Z" fill="#55C6FF"/>
<path fill-rule="evenodd" clip-rule="evenodd" d="M147.858 62.2398C151.803 58.2953 151.803 51.9 147.858 47.9554L144.797 44.8945L110.092 44.5035L109.086 9.18359L107.046 7.14297C103.101 3.19845 96.7059 3.19845 92.7614 7.14297L92.7769 61.8188L147.858 62.2398Z" fill="#9A71FF"/>
<path d="M109.085 15.3044L109.086 9.18285L107.045 7.14223C103.1 3.19771 96.7051 3.19771 92.7606 7.14223L92.76 31.6294L109.085 15.3044Z" fill="#584DE2"/>
<path d="M139.694 45.9152L145.815 45.9146L147.856 47.9552C151.801 51.8998 151.801 58.2951 147.856 62.2396L123.369 62.2402L139.694 45.9152Z" fill="#584DE2"/>
<path fill-rule="evenodd" clip-rule="evenodd" d="M46.8603 136.82L59.6343 149.312L87.2487 122.308L116.992 151.393L129.766 138.902L87.2487 97.3245L46.8603 136.82Z" fill="#51E5A5"/>
<path fill-rule="evenodd" clip-rule="evenodd" d="M16.0984 108.138L3.60678 95.6837L32.6926 66.685L3.60678 37.6863L16.0984 25.2321L57.6758 66.685L16.0984 108.138Z" fill="black"/>
<path fill-rule="evenodd" clip-rule="evenodd" d="M18.1802 104.534L5.68863 92.3154L32.6926 65.9013L3.60678 37.4513L16.0984 25.2327L57.6758 65.9013L18.1802 104.534Z" fill="#51E5A5"/>
<path fill-rule="evenodd" clip-rule="evenodd" d="M62.2424 147.856C58.2978 151.8 51.9025 151.8 47.958 147.856L44.8971 144.795L44.5061 110.09L9.18615 109.084L7.14553 107.043C3.20101 103.099 3.20101 96.7033 7.14553 92.7588L61.8214 92.7744L62.2424 147.856Z" fill="#E4759F"/>
<path d="M15.3044 109.084L9.18285 109.084L7.14223 107.044C3.19771 103.099 3.19771 96.7039 7.14223 92.7594L31.6294 92.7588L15.3044 109.084Z" fill="#24B57E"/>
<path d="M45.9152 139.693L45.9146 145.814L47.9552 147.855C51.8998 151.799 58.2951 151.799 62.2396 147.855L62.2402 123.368L45.9152 139.693Z" fill="#24B57E"/>
<path d="M180.616 84.2C180.808 84.68 181.024 85.4 181.264 86.36C181.504 87.32 181.744 88.016 181.984 88.448C183.616 88.448 185.224 88.52 186.808 88.664C188.44 88.808 190 89.12 191.488 89.6C192.4 89.936 193.288 90.32 194.152 90.752C193.528 90.464 192.904 90.2 192.28 89.96C190.984 89.528 189.616 89.24 188.176 89.096C186.736 88.904 185.224 88.808 183.64 88.808C183.4 88.808 183.136 88.832 182.848 88.88C182.608 88.88 182.368 88.88 182.128 88.88L181.768 88.952C181.48 88.424 181.24 87.752 181.048 86.936C180.904 86.12 180.712 85.4 180.472 84.776C180.328 85.784 180.16 87.128 179.968 88.808C179.776 90.44 179.56 92.144 179.32 93.92C179.128 95.648 178.96 97.328 178.816 98.96C178.672 100.544 178.6 101.792 178.6 102.704C178.6 102.944 178.6 103.304 178.6 103.784C178.648 104.264 178.672 104.768 178.672 105.296C178.672 106.016 178.6 106.664 178.456 107.24C178.36 107.864 178.072 108.176 177.592 108.176C177.496 108.176 177.352 108.128 177.16 108.032C177.256 107.072 177.28 106.088 177.232 105.08C177.232 104.504 177.232 103.928 177.232 103.352L176.944 108.032L176.296 107.888L175.648 108.032V109.328C175.456 109.664 175.192 109.976 174.856 110.264C174.568 110.6 174.208 110.768 173.776 110.768C172.96 110.768 172.384 110.384 172.048 109.616C171.76 108.896 171.616 108.248 171.616 107.672C171.616 107 171.616 106.328 171.616 105.656C171.664 105.08 171.688 104.504 171.688 103.928C171.544 104.552 171.424 105.2 171.328 105.872C171.184 106.64 171.064 107.432 170.968 108.248C170.728 107.864 170.56 107.384 170.464 106.808C170.368 106.28 170.32 105.8 170.32 105.368L170.968 97.448H171.904C171.856 96.968 171.808 96.512 171.76 96.08C171.76 95.6 171.76 95.12 171.76 94.64C171.76 92.048 171.952 89.456 172.336 86.864C172.72 84.224 172.912 81.608 172.912 79.016C172.912 78.488 172.888 77.96 172.84 77.432C172.84 76.904 172.816 76.376 172.768 75.848H172.336C172.336 79.016 172.24 82.16 172.048 85.28C171.856 88.352 171.568 91.472 171.184 94.64C171.76 87.44 172.048 80.216 172.048 72.968C172.048 71.48 171.952 69.992 171.76 68.504C171.616 66.968 171.544 65.456 171.544 63.968C171.544 62.864 171.64 61.808 171.832 60.8C172.072 59.792 172.192 58.736 172.192 57.632V56.84C172.192 56.552 172.168 56.288 172.12 56.048C172.456 56.048 172.744 56.024 172.984 55.976C173.272 55.88 173.512 55.832 173.704 55.832C174.184 55.832 174.472 56.096 174.568 56.624C174.664 57.104 174.712 57.536 174.712 57.92V58.208H175.648C175.696 57.92 175.768 57.56 175.864 57.128C176.008 56.648 176.176 56.192 176.368 55.76C176.56 55.28 176.8 54.896 177.088 54.608C177.424 54.272 177.784 54.104 178.168 54.104C178.648 54.104 179.056 54.56 179.392 55.472C179.776 56.336 180.088 57.464 180.328 58.856C180.568 60.2 180.736 61.712 180.832 63.392C180.976 65.024 181.072 66.608 181.12 68.144C181.168 69.632 181.192 70.976 181.192 72.176C181.24 73.376 181.264 74.216 181.264 74.696V78.368C183.808 75.44 186.64 72.512 189.76 69.584C192.88 66.656 195.952 63.968 198.976 61.52C200.128 60.608 201.208 59.768 202.216 59C203.224 58.184 204.208 57.2 205.168 56.048L206.752 57.704C206.512 58.232 206.2 58.736 205.816 59.216C205.48 59.648 205.12 60.056 204.736 60.44L205.384 60.872C205.672 60.632 206.032 60.368 206.464 60.08C206.896 59.744 207.352 59.432 207.832 59.144C208.312 58.856 208.792 58.616 209.272 58.424C209.752 58.184 210.184 58.064 210.568 58.064C211.144 58.064 211.432 58.352 211.432 58.928C211.432 60.08 211.072 61.16 210.352 62.168C209.632 63.176 208.432 64.424 206.752 65.912C205.072 67.352 202.84 69.2 200.056 71.456C197.32 73.664 193.912 76.568 189.832 80.168C192.28 80.552 194.512 81.224 196.528 82.184C198.592 83.144 200.44 84.344 202.072 85.784C203.704 87.224 205.144 88.856 206.392 90.68C207.64 92.456 208.696 94.352 209.56 96.368C209.752 96.848 210.064 97.52 210.496 98.384C210.928 99.2 211.336 100.064 211.72 100.976C212.152 101.888 212.512 102.776 212.8 103.64C213.136 104.456 213.304 105.104 213.304 105.584C213.304 105.824 213.232 106.088 213.088 106.376C212.944 106.664 212.728 106.856 212.44 106.952C211.624 104.552 210.76 102.2 209.848 99.896C208.984 97.592 207.856 95.384 206.464 93.272C207.76 95.432 208.816 97.664 209.632 99.968C210.496 102.224 211.264 104.552 211.936 106.952L210.856 107.168C210.952 107.408 211.072 107.768 211.216 108.248C211.408 108.776 211.504 109.136 211.504 109.328C211.504 109.712 211.432 110.192 211.288 110.768C211.192 111.392 210.856 111.704 210.28 111.704C209.752 111.704 209.248 111.512 208.768 111.128C208.288 110.744 207.88 110.36 207.544 109.976C207.016 107.192 206.248 104.504 205.24 101.912C204.232 99.32 202.912 96.968 201.28 94.856C202.624 96.728 203.704 98.864 204.52 101.264C205.336 103.616 206.056 106.232 206.68 109.112C205.96 108.152 205.336 107.12 204.808 106.016C204.328 104.912 203.848 103.808 203.368 102.704C202.936 101.552 202.48 100.424 202 99.32C201.52 98.216 200.944 97.16 200.272 96.152L200.92 95.648C199.576 94.112 198.208 92.84 196.816 91.832C195.424 90.824 193.96 90.008 192.424 89.384C190.888 88.76 189.256 88.328 187.528 88.088C185.8 87.848 183.952 87.728 181.984 87.728L180.688 83.624L180.616 84.2ZM186.304 73.904L186.088 73.616L181.264 78.656L181.192 79.736L186.304 73.904ZM191.272 82.04C194.44 82.904 197.296 84.32 199.84 86.288C202.432 88.256 204.64 90.584 206.464 93.272C204.832 90.488 202.672 88.112 199.984 86.144C197.296 84.176 194.392 82.808 191.272 82.04ZM186.16 86.864C190.096 87.392 193.288 88.376 195.736 89.816C193.048 87.992 189.856 87.008 186.16 86.864ZM178.312 91.544C178.12 93.08 177.976 94.64 177.88 96.224C178.12 94.688 178.312 93.128 178.456 91.544C178.648 90.008 178.864 88.496 179.104 87.008C178.768 88.496 178.504 90.008 178.312 91.544ZM173.272 88.016C173.176 89.36 173.056 90.752 172.912 92.192C173.152 90.656 173.32 89.192 173.416 87.8C173.56 86.312 173.632 84.944 173.632 83.696C173.488 85.184 173.368 86.624 173.272 88.016ZM197.608 93.2C197.08 92.672 196.528 92.216 195.952 91.832L195.88 91.76C196.504 92.144 197.08 92.624 197.608 93.2ZM195.088 91.256C194.848 91.112 194.608 90.968 194.368 90.824C194.608 90.968 194.848 91.112 195.088 91.256ZM195.664 91.616L195.88 91.76C195.64 91.616 195.424 91.472 195.232 91.328C195.376 91.424 195.52 91.52 195.664 91.616ZM198.904 94.568C198.808 94.424 198.688 94.28 198.544 94.136C198.688 94.28 198.808 94.424 198.904 94.568ZM198.256 93.848C198.352 93.944 198.448 94.04 198.544 94.136C198.448 94.04 198.352 93.944 198.256 93.848ZM171.688 103.928C171.736 103.88 171.76 103.832 171.76 103.784C171.712 103.832 171.688 103.88 171.688 103.928ZM199.12 94.784C199.024 94.736 198.952 94.664 198.904 94.568C199 94.616 199.072 94.688 199.12 94.784Z" fill="#55C6FF"/>
<path d="M243.872 85.136C242.576 85.136 241.592 85.112 240.92 85.064C240.296 85.016 239.72 84.992 239.192 84.992C237.752 84.992 236.48 85.064 235.376 85.208C234.272 85.352 233.336 85.64 232.568 86.072C231.8 86.504 231.224 87.128 230.84 87.944C230.456 88.76 230.264 89.84 230.264 91.184C230.264 93.152 230.48 94.616 230.912 95.576C231.392 96.488 232.04 97.16 232.856 97.592C233.72 97.976 234.752 98.216 235.952 98.312C237.152 98.408 238.496 98.624 239.984 98.96C240.848 99.056 241.712 99.128 242.576 99.176C243.44 99.176 244.304 99.176 245.168 99.176H250.352C247.952 99.032 245.552 98.96 243.152 98.96C240.8 98.912 238.664 98.696 236.744 98.312C234.872 97.928 233.336 97.256 232.136 96.296C230.984 95.336 230.408 93.872 230.408 91.904C230.408 90.32 230.6 89.12 230.984 88.304C231.416 87.44 231.968 86.816 232.64 86.432C233.36 86 234.2 85.76 235.16 85.712C236.12 85.616 237.152 85.568 238.256 85.568C239.6 85.568 240.968 85.64 242.36 85.784C241.256 86.12 240.128 86.384 238.976 86.576C237.872 86.72 236.84 86.888 235.88 87.08C234.92 87.224 234.08 87.44 233.36 87.728C232.688 87.968 232.232 88.328 231.992 88.808V92.048L231.416 92.336C231.608 93.536 231.776 94.448 231.92 95.072C232.112 95.648 232.592 96.104 233.36 96.44C234.128 96.728 235.352 96.968 237.032 97.16C238.76 97.352 241.256 97.664 244.52 98.096H249.704C250.616 98.096 251.144 98.072 251.288 98.024C251.48 97.928 251.6 97.88 251.648 97.88L251 93.992C250.904 93.032 250.784 92.168 250.64 91.4C250.496 90.632 250.304 89.816 250.064 88.952C250.016 89.096 249.872 89.168 249.632 89.168C249.872 89.984 250.064 90.848 250.208 91.76C250.4 92.672 250.544 93.536 250.64 94.352C250.784 95.168 250.88 95.864 250.928 96.44C251.024 97.016 251.12 97.352 251.216 97.448L250.784 97.592C250.688 97.64 250.544 97.664 250.352 97.664H249.92C249.584 97.664 249.2 97.64 248.768 97.592C248.336 97.496 247.784 97.448 247.112 97.448H244.736C242.864 97.448 241.136 97.352 239.552 97.16C238.064 96.968 236.768 96.728 235.664 96.44C236.768 96.68 238.112 96.872 239.696 97.016C241.376 97.208 242.936 97.304 244.376 97.304C245 97.304 245.648 97.304 246.32 97.304C247.04 97.256 247.808 97.232 248.624 97.232H251C250.856 97.088 250.688 97.016 250.496 97.016H250.352C250.16 93.704 249.728 90.536 249.056 87.512C248.384 84.488 247.304 81.848 245.816 79.592C244.328 77.288 242.384 75.464 239.984 74.12C237.584 72.728 234.584 72.032 230.984 72.032C229.976 72.032 228.968 72.104 227.96 72.248C226.952 72.392 225.92 72.584 224.864 72.824C224.96 72.728 225.008 72.632 225.008 72.536C225.008 72.296 224.912 72.08 224.72 71.888C224.528 71.648 224.432 71.408 224.432 71.168C224.432 70.88 224.72 70.616 225.296 70.376C225.92 70.088 227.216 69.824 229.184 69.584C229.088 69.488 229.016 69.344 228.968 69.152C228.968 68.96 228.968 68.816 228.968 68.72C226.376 68.72 224.36 68.672 222.92 68.576C221.48 68.432 220.76 68.072 220.76 67.496C220.76 67.256 221.048 66.92 221.624 66.488C222.248 66.056 223.112 65.648 224.216 65.264C225.32 64.832 226.64 64.472 228.176 64.184C229.76 63.848 231.512 63.68 233.432 63.68C237.128 63.68 240.296 64.256 242.936 65.408C245.576 66.512 247.784 68 249.56 69.872C251.384 71.696 252.848 73.784 253.952 76.136C255.104 78.488 256.016 80.864 256.688 83.264C257.408 85.616 257.936 87.92 258.272 90.176C258.608 92.384 258.92 94.304 259.208 95.936C259.208 96.224 259.208 96.512 259.208 96.8C259.256 97.088 259.28 97.424 259.28 97.808C259.28 99.2 259.016 100.424 258.488 101.48C258.008 102.488 257.312 103.328 256.4 104C255.536 104.72 254.504 105.248 253.304 105.584C252.152 105.968 250.904 106.16 249.56 106.16C248.504 106.16 247.136 106.136 245.456 106.088C243.776 106.04 242.168 105.896 240.632 105.656C239.624 105.416 238.52 105.224 237.32 105.08C236.12 104.984 234.896 104.792 233.648 104.504C232.4 104.216 231.176 103.808 229.976 103.28C228.824 102.752 227.768 101.96 226.808 100.904C225.896 99.8 225.152 98.384 224.576 96.656C224.048 94.928 223.784 92.744 223.784 90.104C223.784 87.608 224.36 85.616 225.512 84.128C226.664 82.592 228.032 81.416 229.616 80.6C231.248 79.736 232.904 79.184 234.584 78.944C236.264 78.656 237.632 78.512 238.688 78.512C240.032 78.512 240.92 78.608 241.352 78.8C241.784 78.992 242 79.184 242 79.376C242 79.52 241.976 79.64 241.928 79.736C240.728 79.736 239.192 79.784 237.32 79.88C235.448 79.976 233.624 80.288 231.848 80.816C230.12 81.344 228.632 82.16 227.384 83.264C226.136 84.32 225.512 85.832 225.512 87.8C225.944 86.024 226.664 84.632 227.672 83.624C228.728 82.568 229.928 81.8 231.272 81.32C232.616 80.792 233.984 80.48 235.376 80.384C236.816 80.24 238.112 80.168 239.264 80.168H241.712C241.52 80.36 241.424 80.552 241.424 80.744C241.424 80.936 241.52 81.104 241.712 81.248H244.52C245.288 81.392 245.84 81.656 246.176 82.04C246.512 82.376 246.68 82.688 246.68 82.976C246.68 83.408 246.464 83.792 246.032 84.128C245.6 84.464 244.88 84.8 243.872 85.136ZM231.776 102.56C233.12 103.088 234.488 103.496 235.88 103.784C237.32 104.072 238.736 104.264 240.128 104.36C241.52 104.504 242.816 104.576 244.016 104.576C243.056 104.48 242.096 104.312 241.136 104.072C240.128 103.832 239.24 103.616 238.472 103.424C237.656 103.232 236.84 103.112 236.024 103.064C235.256 102.968 234.44 102.848 233.576 102.704C232.76 102.56 231.92 102.344 231.056 102.056C230.192 101.72 229.328 101.24 228.464 100.616C229.376 101.432 230.48 102.08 231.776 102.56ZM232.496 95C232.448 94.952 232.592 95.096 232.928 95.432C233.216 95.72 233.6 95.936 234.08 96.08C233.84 95.984 233.48 95.864 233 95.72C232.472 95.528 232.208 95.24 232.208 94.856L232.496 95ZM234.296 96.08C234.248 96.08 234.176 96.08 234.08 96.08C234.128 96.08 234.2 96.08 234.296 96.08Z" fill="#9A71FF"/>
<path d="M413.576 92.408C414.344 92.648 415.256 93.08 416.312 93.704C417.416 94.328 418.64 94.976 419.984 95.648C421.328 96.32 422.792 96.92 424.376 97.448C426.008 97.976 427.736 98.24 429.56 98.24H430.352C430.64 98.24 430.976 98.192 431.36 98.096L432.152 98.672C434.024 98.096 435.56 97.016 436.76 95.432C437.96 93.8 438.56 91.616 438.56 88.88C438.56 86.912 438.08 85.568 437.12 84.848C436.208 84.08 434.504 83.696 432.008 83.696C430.472 83.696 428.864 83.816 427.184 84.056C425.552 84.248 423.824 84.344 422 84.344C421.184 84.344 420.344 84.32 419.48 84.272C418.616 84.176 417.728 84.008 416.816 83.768V84.2C418.736 84.68 420.632 84.92 422.504 84.92C424.328 84.92 426.056 84.824 427.688 84.632C429.368 84.392 430.976 84.272 432.512 84.272C433.808 84.272 434.816 84.416 435.536 84.704C436.304 84.944 436.88 85.28 437.264 85.712C437.648 86.144 437.888 86.672 437.984 87.296C438.128 87.872 438.2 88.52 438.2 89.24C438.2 91.496 437.6 93.416 436.4 95C435.248 96.488 433.88 97.424 432.296 97.808C434.072 97.184 435.464 96.104 436.472 94.568C437.528 92.936 438.056 91.112 438.056 89.096C438.056 87.656 437.672 86.552 436.904 85.784C436.184 85.016 434.912 84.632 433.088 84.632C431.6 84.632 429.92 84.728 428.048 84.92C426.176 85.112 424.184 85.208 422.072 85.208C420.776 85.208 419.264 85.04 417.536 84.704C415.856 84.368 414.248 83.744 412.712 82.832C411.176 81.92 409.88 80.672 408.824 79.088C407.768 77.456 407.24 75.344 407.24 72.752C407.24 70.688 407.648 68.792 408.464 67.064C409.328 65.288 410.456 63.752 411.848 62.456C413.24 61.112 414.824 60.056 416.6 59.288C418.424 58.52 420.296 58.112 422.216 58.064C424.04 58.064 425.768 58.328 427.4 58.856C429.08 59.336 430.664 59.984 432.152 60.8C433.64 61.568 435.056 62.432 436.4 63.392C437.744 64.352 438.992 65.312 440.144 66.272L438.704 67.712C438.368 67.712 437.864 67.52 437.192 67.136C436.52 66.704 435.488 65.984 434.096 64.976L433.664 65.624C435.392 67.016 436.64 68.312 437.408 69.512C438.224 70.712 438.632 71.648 438.632 72.32C438.536 72.704 438.296 72.896 437.912 72.896C437.528 72.896 436.76 72.584 435.608 71.96C434.456 71.336 433.136 70.64 431.648 69.872C430.208 69.104 428.672 68.408 427.04 67.784C425.408 67.16 423.92 66.848 422.576 66.848C421.808 66.848 421.04 66.992 420.272 67.28C419.504 67.568 418.808 67.976 418.184 68.504C417.56 68.984 417.032 69.584 416.6 70.304C416.216 71.024 416.024 71.816 416.024 72.68C416.024 74.072 416.672 75.008 417.968 75.488C419.264 75.968 420.968 76.208 423.08 76.208C423.512 76.208 423.968 76.208 424.448 76.208C424.976 76.16 425.456 76.088 425.888 75.992C426.992 75.992 427.712 75.968 428.048 75.92C428.432 75.824 428.792 75.776 429.128 75.776C431.192 75.776 433.256 75.92 435.32 76.208C437.384 76.496 439.232 77.12 440.864 78.08C442.496 79.04 443.816 80.408 444.824 82.184C445.832 83.96 446.336 86.336 446.336 89.312C446.336 91.376 445.976 93.44 445.256 95.504C444.584 97.52 443.552 99.344 442.16 100.976C440.768 102.56 439.04 103.832 436.976 104.792C434.912 105.8 432.488 106.304 429.704 106.304C428.024 106.304 426.032 105.968 423.728 105.296C421.472 104.672 419.312 103.928 417.248 103.064C415.232 102.152 413.504 101.216 412.064 100.256C410.672 99.296 409.976 98.48 409.976 97.808C409.976 97.616 410.096 97.472 410.336 97.376C413.264 99.536 416.24 101.312 419.264 102.704C422.24 104 425.288 104.72 428.408 104.864C426.872 104.768 425.336 104.504 423.8 104.072C422.216 103.592 420.632 103.016 419.048 102.344C417.512 101.624 416.024 100.832 414.584 99.968C413.192 99.056 411.848 98.144 410.552 97.232L411.632 96.296C411.488 96.248 411.224 96.08 410.84 95.792C410.456 95.504 410.072 95.144 409.688 94.712C409.352 94.28 409.04 93.824 408.752 93.344C408.464 92.864 408.32 92.408 408.32 91.976C408.32 91.496 408.416 91.184 408.608 91.04C408.8 90.896 409.016 90.824 409.256 90.824C409.496 90.824 410 90.992 410.768 91.328C411.536 91.664 412.472 92.024 413.576 92.408ZM429.488 99.752C427.808 99.752 425.936 99.416 423.872 98.744C421.856 98.024 419.936 97.112 418.112 96.008C419.6 97.016 421.256 97.928 423.08 98.744C424.904 99.512 427.016 99.896 429.416 99.896C432.632 99.896 435.176 98.912 437.048 96.944C438.968 94.976 439.928 92.336 439.928 89.024V88.304C439.688 86.768 439.16 85.52 438.344 84.56C437.576 83.552 436.376 83 434.744 82.904C435.752 83.096 436.568 83.408 437.192 83.84C437.864 84.272 438.368 84.8 438.704 85.424C439.088 86 439.352 86.648 439.496 87.368C439.64 88.088 439.712 88.832 439.712 89.6C439.52 92.768 438.512 95.264 436.688 97.088C434.864 98.864 432.464 99.752 429.488 99.752ZM438.632 102.56C439.832 101.792 440.792 100.856 441.512 99.752C442.232 98.648 442.856 97.496 443.384 96.296C442.376 98.312 440.984 100.088 439.208 101.624C437.48 103.16 435.416 104.12 433.016 104.504C433.928 104.36 434.864 104.168 435.824 103.928C436.832 103.64 437.768 103.184 438.632 102.56ZM445.472 89.024C445.472 88.496 445.376 87.992 445.184 87.512C445.04 87.128 444.92 86.72 444.824 86.288L444.896 87.224C444.944 87.608 444.968 88.136 444.968 88.808C444.968 90.104 444.824 91.352 444.536 92.552C444.248 93.752 443.888 94.928 443.456 96.08C443.888 95.024 444.296 93.92 444.68 92.768C445.112 91.568 445.376 90.32 445.472 89.024ZM444.824 86.072C444.824 86.12 444.824 86.192 444.824 86.288C444.824 86.192 444.824 86.12 444.824 86.072ZM432.224 97.88C432.176 97.88 432.128 97.88 432.08 97.88C432.128 97.88 432.176 97.88 432.224 97.88Z" fill="#24B57E"/>
<path d="M383.872 85.136C382.576 85.136 381.592 85.112 380.92 85.064C380.296 85.016 379.72 84.992 379.192 84.992C377.752 84.992 376.48 85.064 375.376 85.208C374.272 85.352 373.336 85.64 372.568 86.072C371.8 86.504 371.224 87.128 370.84 87.944C370.456 88.76 370.264 89.84 370.264 91.184C370.264 93.152 370.48 94.616 370.912 95.576C371.392 96.488 372.04 97.16 372.856 97.592C373.72 97.976 374.752 98.216 375.952 98.312C377.152 98.408 378.496 98.624 379.984 98.96C380.848 99.056 381.712 99.128 382.576 99.176C383.44 99.176 384.304 99.176 385.168 99.176H390.352C387.952 99.032 385.552 98.96 383.152 98.96C380.8 98.912 378.664 98.696 376.744 98.312C374.872 97.928 373.336 97.256 372.136 96.296C370.984 95.336 370.408 93.872 370.408 91.904C370.408 90.32 370.6 89.12 370.984 88.304C371.416 87.44 371.968 86.816 372.64 86.432C373.36 86 374.2 85.76 375.16 85.712C376.12 85.616 377.152 85.568 378.256 85.568C379.6 85.568 380.968 85.64 382.36 85.784C381.256 86.12 380.128 86.384 378.976 86.576C377.872 86.72 376.84 86.888 375.88 87.08C374.92 87.224 374.08 87.44 373.36 87.728C372.688 87.968 372.232 88.328 371.992 88.808V92.048L371.416 92.336C371.608 93.536 371.776 94.448 371.92 95.072C372.112 95.648 372.592 96.104 373.36 96.44C374.128 96.728 375.352 96.968 377.032 97.16C378.76 97.352 381.256 97.664 384.52 98.096H389.704C390.616 98.096 391.144 98.072 391.288 98.024C391.48 97.928 391.6 97.88 391.648 97.88L391 93.992C390.904 93.032 390.784 92.168 390.64 91.4C390.496 90.632 390.304 89.816 390.064 88.952C390.016 89.096 389.872 89.168 389.632 89.168C389.872 89.984 390.064 90.848 390.208 91.76C390.4 92.672 390.544 93.536 390.64 94.352C390.784 95.168 390.88 95.864 390.928 96.44C391.024 97.016 391.12 97.352 391.216 97.448L390.784 97.592C390.688 97.64 390.544 97.664 390.352 97.664H389.92C389.584 97.664 389.2 97.64 388.768 97.592C388.336 97.496 387.784 97.448 387.112 97.448H384.736C382.864 97.448 381.136 97.352 379.552 97.16C378.064 96.968 376.768 96.728 375.664 96.44C376.768 96.68 378.112 96.872 379.696 97.016C381.376 97.208 382.936 97.304 384.376 97.304C385 97.304 385.648 97.304 386.32 97.304C387.04 97.256 387.808 97.232 388.624 97.232H391C390.856 97.088 390.688 97.016 390.496 97.016H390.352C390.16 93.704 389.728 90.536 389.056 87.512C388.384 84.488 387.304 81.848 385.816 79.592C384.328 77.288 382.384 75.464 379.984 74.12C377.584 72.728 374.584 72.032 370.984 72.032C369.976 72.032 368.968 72.104 367.96 72.248C366.952 72.392 365.92 72.584 364.864 72.824C364.96 72.728 365.008 72.632 365.008 72.536C365.008 72.296 364.912 72.08 364.72 71.888C364.528 71.648 364.432 71.408 364.432 71.168C364.432 70.88 364.72 70.616 365.296 70.376C365.92 70.088 367.216 69.824 369.184 69.584C369.088 69.488 369.016 69.344 368.968 69.152C368.968 68.96 368.968 68.816 368.968 68.72C366.376 68.72 364.36 68.672 362.92 68.576C361.48 68.432 360.76 68.072 360.76 67.496C360.76 67.256 361.048 66.92 361.624 66.488C362.248 66.056 363.112 65.648 364.216 65.264C365.32 64.832 366.64 64.472 368.176 64.184C369.76 63.848 371.512 63.68 373.432 63.68C377.128 63.68 380.296 64.256 382.936 65.408C385.576 66.512 387.784 68 389.56 69.872C391.384 71.696 392.848 73.784 393.952 76.136C395.104 78.488 396.016 80.864 396.688 83.264C397.408 85.616 397.936 87.92 398.272 90.176C398.608 92.384 398.92 94.304 399.208 95.936C399.208 96.224 399.208 96.512 399.208 96.8C399.256 97.088 399.28 97.424 399.28 97.808C399.28 99.2 399.016 100.424 398.488 101.48C398.008 102.488 397.312 103.328 396.4 104C395.536 104.72 394.504 105.248 393.304 105.584C392.152 105.968 390.904 106.16 389.56 106.16C388.504 106.16 387.136 106.136 385.456 106.088C383.776 106.04 382.168 105.896 380.632 105.656C379.624 105.416 378.52 105.224 377.32 105.08C376.12 104.984 374.896 104.792 373.648 104.504C372.4 104.216 371.176 103.808 369.976 103.28C368.824 102.752 367.768 101.96 366.808 100.904C365.896 99.8 365.152 98.384 364.576 96.656C364.048 94.928 363.784 92.744 363.784 90.104C363.784 87.608 364.36 85.616 365.512 84.128C366.664 82.592 368.032 81.416 369.616 80.6C371.248 79.736 372.904 79.184 374.584 78.944C376.264 78.656 377.632 78.512 378.688 78.512C380.032 78.512 380.92 78.608 381.352 78.8C381.784 78.992 382 79.184 382 79.376C382 79.52 381.976 79.64 381.928 79.736C380.728 79.736 379.192 79.784 377.32 79.88C375.448 79.976 373.624 80.288 371.848 80.816C370.12 81.344 368.632 82.16 367.384 83.264C366.136 84.32 365.512 85.832 365.512 87.8C365.944 86.024 366.664 84.632 367.672 83.624C368.728 82.568 369.928 81.8 371.272 81.32C372.616 80.792 373.984 80.48 375.376 80.384C376.816 80.24 378.112 80.168 379.264 80.168H381.712C381.52 80.36 381.424 80.552 381.424 80.744C381.424 80.936 381.52 81.104 381.712 81.248H384.52C385.288 81.392 385.84 81.656 386.176 82.04C386.512 82.376 386.68 82.688 386.68 82.976C386.68 83.408 386.464 83.792 386.032 84.128C385.6 84.464 384.88 84.8 383.872 85.136ZM371.776 102.56C373.12 103.088 374.488 103.496 375.88 103.784C377.32 104.072 378.736 104.264 380.128 104.36C381.52 104.504 382.816 104.576 384.016 104.576C383.056 104.48 382.096 104.312 381.136 104.072C380.128 103.832 379.24 103.616 378.472 103.424C377.656 103.232 376.84 103.112 376.024 103.064C375.256 102.968 374.44 102.848 373.576 102.704C372.76 102.56 371.92 102.344 371.056 102.056C370.192 101.72 369.328 101.24 368.464 100.616C369.376 101.432 370.48 102.08 371.776 102.56ZM372.496 95C372.448 94.952 372.592 95.096 372.928 95.432C373.216 95.72 373.6 95.936 374.08 96.08C373.84 95.984 373.48 95.864 373 95.72C372.472 95.528 372.208 95.24 372.208 94.856L372.496 95ZM374.296 96.08C374.248 96.08 374.176 96.08 374.08 96.08C374.128 96.08 374.2 96.08 374.296 96.08Z" fill="#51E5A5"/>
<path d="M321.096 104.072C319.992 99.752 318.84 95.576 317.64 91.544C316.44 87.464 315.192 83.36 313.896 79.232C313.272 77.312 312.744 75.44 312.312 73.616C311.88 71.744 311.256 69.872 310.44 68C310.776 67.904 311.04 67.736 311.232 67.496C311.472 67.208 311.76 67.064 312.096 67.064C312.336 67.064 312.552 67.208 312.744 67.496C312.984 67.784 313.176 68.12 313.32 68.504C313.512 68.84 313.68 69.2 313.824 69.584C313.968 69.968 314.064 70.232 314.112 70.376L314.976 70.16C314.784 69.392 314.616 68.648 314.472 67.928C314.376 67.16 314.328 66.392 314.328 65.624C314.328 65.336 314.352 64.904 314.4 64.328C314.496 63.704 314.784 63.392 315.264 63.392C315.984 63.392 316.776 64.064 317.64 65.408C318.504 66.704 319.344 68.384 320.16 70.448C321.024 72.512 321.864 74.792 322.68 77.288C323.496 79.736 324.24 82.112 324.912 84.416C325.584 86.72 326.16 88.784 326.64 90.608C327.168 92.432 327.528 93.728 327.72 94.496C328.968 92.912 330.072 91.256 331.032 89.528C331.992 87.8 332.928 86.072 333.84 84.344C334.8 82.568 335.784 80.84 336.792 79.16C337.848 77.432 339.072 75.8 340.464 74.264C340.8 73.88 341.304 73.256 341.976 72.392C342.696 71.528 343.44 70.664 344.208 69.8C345.024 68.888 345.816 68.096 346.584 67.424C347.352 66.752 347.976 66.416 348.456 66.416C348.696 66.416 348.912 66.584 349.104 66.92C347.28 68.744 345.456 70.568 343.632 72.392C341.856 74.216 340.296 76.28 338.952 78.584C340.344 76.376 341.928 74.384 343.704 72.608C345.528 70.784 347.4 69.032 349.32 67.352L349.968 68.216C350.256 67.784 350.784 67.304 351.552 66.776C352.32 66.248 352.968 65.984 353.496 65.984C353.88 65.984 354.168 66.104 354.36 66.344C354.552 66.584 354.648 66.896 354.648 67.28C354.648 67.616 354.6 68.048 354.504 68.576C354.408 69.104 354.264 69.488 354.072 69.728C353.832 70.064 353.544 70.352 353.208 70.592C351.624 72.032 350.112 73.376 348.672 74.624C347.28 75.824 345.96 77.312 344.712 79.088L345.216 78.584C346.512 77.048 347.808 75.68 349.104 74.48C350.448 73.28 351.96 72.128 353.64 71.024C352.728 72.56 351.672 73.88 350.472 74.984C349.32 76.04 348.144 77.24 346.944 78.584C346.368 79.256 345.864 80 345.432 80.816C345.048 81.584 344.544 82.28 343.92 82.904L343.272 82.688C342.36 84.656 341.4 86.672 340.392 88.736C339.432 90.752 338.376 92.744 337.224 94.712C336.072 96.632 334.776 98.456 333.336 100.184C331.944 101.912 330.36 103.424 328.584 104.72C328.44 105.008 328.128 105.248 327.648 105.44C327.216 105.68 326.88 105.872 326.64 106.016L322.104 104C321.768 102.896 321.384 101.72 320.952 100.472C320.568 99.224 320.184 98.048 319.8 96.944L319.44 97.016L321.384 104C321.432 104.048 321.504 104.096 321.6 104.144C321.744 104.192 321.984 104.288 322.32 104.432C322.704 104.624 323.256 104.864 323.976 105.152C324.744 105.488 325.776 105.92 327.072 106.448C328.992 105.296 330.624 104.048 331.968 102.704C333.264 101.408 334.512 99.872 335.712 98.096C335.184 99.008 334.632 99.848 334.056 100.616C333.48 101.432 332.856 102.2 332.184 102.92C331.512 103.64 330.768 104.312 329.952 104.936C329.136 105.608 328.2 106.232 327.144 106.808L321.096 104.072ZM331.176 101.264C333.48 98.672 335.448 95.936 337.08 93.056C338.76 90.176 340.248 87.224 341.544 84.2V84.056C340.728 85.496 339.912 86.984 339.096 88.52C338.328 90.008 337.536 91.496 336.72 92.984C335.904 94.424 335.04 95.864 334.128 97.304C333.216 98.696 332.232 100.016 331.176 101.264ZM334.488 86.648C335.928 83.912 337.416 81.224 338.952 78.584C337.272 81.176 335.736 83.816 334.344 86.504C332.952 89.144 331.44 91.712 329.808 94.208C331.536 91.808 333.096 89.288 334.488 86.648ZM344.424 79.52C343.944 80.192 343.488 80.864 343.056 81.536C342.672 82.16 342.288 82.784 341.904 83.408C342.336 82.784 342.84 82.184 343.416 81.608C343.992 80.984 344.328 80.288 344.424 79.52ZM336.072 97.592C336.84 96.344 337.56 95.072 338.232 93.776C338.28 93.728 338.328 93.68 338.376 93.632C338.328 93.68 338.304 93.728 338.304 93.776C337.632 95.072 336.888 96.344 336.072 97.592ZM339.312 91.832L338.736 92.912L339.312 91.832ZM339.888 90.68C339.696 91.064 339.504 91.448 339.312 91.832C339.504 91.448 339.696 91.064 339.888 90.68ZM338.664 92.984C338.616 93.128 338.544 93.272 338.448 93.416C338.544 93.272 338.616 93.128 338.664 92.984ZM335.928 97.808C335.832 97.904 335.76 98 335.712 98.096C335.76 98 335.832 97.904 335.928 97.808Z" fill="#E4759F"/>
<path d="M268.32 105.392C268.32 105.152 268.392 104.864 268.536 104.528C268.68 104.192 268.752 103.832 268.752 103.448C268.896 102.296 268.992 101.48 269.04 101C269.088 100.472 269.112 100.016 269.112 99.632C269.112 97.616 269.04 95.456 268.896 93.152C268.8 90.8 268.68 88.544 268.536 86.384C268.536 85.712 268.512 84.92 268.464 84.008C268.464 83.096 268.416 82.376 268.32 81.848C268.464 80.168 268.584 78.512 268.68 76.88C268.776 75.248 268.824 73.592 268.824 71.912V70.112C268.824 69.488 268.8 68.864 268.752 68.24C268.896 68.384 269.04 68.456 269.184 68.456C269.376 68.456 269.568 68.384 269.76 68.24C270 68.096 270.216 68.024 270.408 68.024C270.744 68.024 271.008 68.384 271.2 69.104C271.44 69.824 271.56 71.408 271.56 73.856H272.208C272.448 71.168 272.808 69.032 273.288 67.448C273.816 65.864 274.344 65.072 274.872 65.072C275.112 65.072 275.496 65.6 276.024 66.656C276.552 67.664 276.816 69.272 276.816 71.48L277.608 70.184C278.136 69.56 278.712 68.912 279.336 68.24C280.008 67.568 280.752 66.968 281.568 66.44C282.384 65.912 283.296 65.48 284.304 65.144C285.312 64.76 286.464 64.568 287.76 64.568C290.256 64.568 292.416 65.144 294.24 66.296C296.112 67.4 297.672 68.864 298.92 70.688C300.168 72.464 301.176 74.504 301.944 76.808C302.76 79.064 303.384 81.368 303.816 83.72C304.248 86.024 304.536 88.256 304.68 90.416C304.824 92.576 304.896 94.424 304.896 95.96C304.896 97.352 304.8 98.192 304.608 98.48C304.464 98.72 304.176 98.864 303.744 98.912C303.648 95.216 303.408 91.448 303.024 87.608C302.64 83.768 301.728 80.048 300.288 76.448C301.584 80.24 302.4 83.984 302.736 87.68C303.12 91.328 303.312 95 303.312 98.696C303.024 98.552 302.76 98.48 302.52 98.48C302.328 98.48 302.16 98.552 302.016 98.696C302.016 99.08 302.04 99.488 302.088 99.92C302.136 100.304 302.16 100.688 302.16 101.072C302.208 101.456 302.232 101.816 302.232 102.152C301.944 103.256 301.656 104.048 301.368 104.528C301.08 105.008 300.816 105.248 300.576 105.248C300.288 105.248 300.048 105.128 299.856 104.888C299.664 104.6 299.472 104.264 299.28 103.88C299.136 103.496 298.968 103.088 298.776 102.656C298.632 102.176 298.416 101.72 298.128 101.288C298.224 100.472 298.296 99.824 298.344 99.344C298.392 98.816 298.416 98.384 298.416 98.048C298.416 96.752 298.392 95.192 298.344 93.368C298.296 91.544 298.152 89.648 297.912 87.68C297.72 85.664 297.384 83.672 296.904 81.704C296.472 79.688 295.848 77.912 295.032 76.376C294.264 74.792 293.28 73.52 292.08 72.56C290.88 71.552 289.44 71.048 287.76 71.048C286.608 71.048 285.576 71.432 284.664 72.2C283.8 72.968 283.032 73.952 282.36 75.152C281.736 76.352 281.184 77.672 280.704 79.112C280.224 80.504 279.84 81.848 279.552 83.144C279.984 81.8 280.416 80.432 280.848 79.04C281.328 77.648 281.88 76.376 282.504 75.224C283.176 74.072 283.944 73.136 284.808 72.416C285.672 71.648 286.68 71.264 287.832 71.264C289.32 71.264 290.592 71.672 291.648 72.488C292.752 73.304 293.664 74.36 294.384 75.656C295.152 76.952 295.752 78.44 296.184 80.12C296.664 81.752 297.024 83.432 297.264 85.16C297.504 86.84 297.648 88.496 297.696 90.128C297.792 91.712 297.84 93.08 297.84 94.232C297.84 95.144 297.816 96.056 297.768 96.968C297.768 97.88 297.744 98.816 297.696 99.776C297.264 97.952 296.928 96.056 296.688 94.088C296.496 92.072 296.28 90.104 296.04 88.184C295.8 86.216 295.488 84.344 295.104 82.568C294.768 80.744 294.264 79.064 293.592 77.528L294.096 76.808C293.616 75.704 293.064 74.864 292.44 74.288C291.864 73.664 291.288 73.208 290.712 72.92C290.136 72.632 289.608 72.464 289.128 72.416C288.648 72.368 288.336 72.344 288.192 72.344C286.992 72.344 285.912 72.776 284.952 73.64C284.04 74.504 283.224 75.68 282.504 77.168C281.832 78.608 281.232 80.288 280.704 82.208C280.176 84.128 279.72 86.144 279.336 88.256C278.952 90.368 278.616 92.504 278.328 94.664C278.04 96.776 277.8 98.768 277.608 100.64H278.256C278.496 99.008 278.736 97.208 278.976 95.24C279.264 93.272 279.552 91.28 279.84 89.264C280.176 87.2 280.56 85.208 280.992 83.288C281.424 81.368 281.928 79.64 282.504 78.104C283.128 76.568 283.848 75.32 284.664 74.36C285.432 73.448 286.368 72.92 287.472 72.776C286.416 73.016 285.528 73.688 284.808 74.792C284.04 75.944 283.368 77.36 282.792 79.04C282.216 80.72 281.688 82.568 281.208 84.584C280.776 86.552 280.368 88.448 279.984 90.272L278.544 100.784C278.352 101.456 278.208 102.056 278.112 102.584L277.824 104.096C277.728 104.576 277.632 105.104 277.536 105.68C277.44 106.208 277.32 106.832 277.176 107.552L276.96 108.416H276.528L269.256 105.968C269.016 105.92 268.824 105.848 268.68 105.752C268.584 105.656 268.464 105.536 268.32 105.392ZM280.848 68.456C279.888 69.272 279.12 70.16 278.544 71.12C278.016 72.032 277.512 72.968 277.032 73.928V74C277.704 72.608 278.64 71.192 279.84 69.752C280.992 68.408 282.528 67.4 284.448 66.728C283.824 66.92 283.224 67.112 282.648 67.304C281.976 67.544 281.376 67.928 280.848 68.456ZM289.488 66.08C289.248 66.032 288.912 66.008 288.48 66.008C290.016 66.392 291.456 66.824 292.8 67.304C294.144 67.736 295.416 68.624 296.616 69.968C295.8 68.864 294.72 68 293.376 67.376C292.08 66.752 290.784 66.32 289.488 66.08ZM291.432 74.288C291.048 74 290.592 73.784 290.064 73.64C289.584 73.448 288.984 73.208 288.264 72.92L288.192 72.776C289.008 72.824 289.728 73.016 290.352 73.352C290.976 73.64 291.576 74.168 292.152 74.936L291.432 74.288ZM296.76 70.112C297.432 70.928 298.056 71.864 298.632 72.92C299.208 73.976 299.712 74.912 300.144 75.728C299.664 74.624 299.208 73.616 298.776 72.704C298.344 71.792 297.672 70.928 296.76 70.112Z" fill="#584DE2"/>
</svg>
